<svg width="33" height="33" viewBox="0 0 33 33" fill="none" xmlns="http://www.w3.org/2000/svg">
<path d="M20.2449 14.5248C22.7577 14.5248 24.7947 12.5632 24.7947 10.1435C24.7947 7.72379 22.7577 5.76221 20.2449 5.76221M24.7947 26.7926H28.4346V25.8424C28.4201 24.5066 28.0542 23.1961 27.3712 22.0335C26.6882 20.8707 25.7103 19.8937 24.5288 19.1936C23.7652 18.741 22.9324 18.4137 22.0648 18.2218M12.9651 14.5248C15.4779 14.5248 17.515 12.5632 17.515 10.1435C17.515 7.72379 15.4779 5.76221 12.9651 5.76221C10.4523 5.76221 8.41527 7.72379 8.41527 10.1435C8.41527 12.5632 10.4523 14.5248 12.9651 14.5248ZM4.77539 26.7924H21.1549V25.8424C21.1404 24.5066 20.7745 23.1961 20.0915 22.0335C19.4085 20.8707 18.4306 19.8937 17.2491 19.1935C16.0677 18.4934 14.7212 18.0931 13.3355 18.0299C13.212 18.0243 13.0885 18.0213 12.9651 18.0211C12.8418 18.0213 12.7183 18.0243 12.5947 18.0299C11.209 18.0931 9.86258 18.4934 8.68111 19.1935C7.49966 19.8937 6.52175 20.8707 5.83873 22.0335C5.15572 23.1961 4.78988 24.5066 4.77539 25.8424V26.7924Z" stroke="#5C5F6A" stroke-width="1.87772" stroke-linecap="round" stroke-linejoin="round"/>
</svg>
