<svg width="33" height="32" viewBox="0 0 33 32" fill="none" xmlns="http://www.w3.org/2000/svg">
<path d="M25.7038 15.3365H19.6373C19.2185 15.3365 18.879 15.676 18.879 16.0948V25.1945C18.879 25.6133 19.2185 25.9528 19.6373 25.9528H25.7038C26.1225 25.9528 26.4621 25.6133 26.4621 25.1945V16.0948C26.4621 15.676 26.1225 15.3365 25.7038 15.3365Z" stroke="#0E1422" stroke-width="1.87959" stroke-linecap="round" stroke-linejoin="round"/>
<path d="M25.7038 6.23682H19.6373C19.2185 6.23682 18.879 6.57632 18.879 6.99512V10.0435C18.879 10.4623 19.2185 10.8018 19.6373 10.8018H25.7038C26.1225 10.8018 26.4621 10.4623 26.4621 10.0435V6.99512C26.4621 6.57632 26.1225 6.23682 25.7038 6.23682Z" stroke="#0E1422" stroke-width="1.87959" stroke-linecap="round" stroke-linejoin="round"/>
<path d="M13.5709 6.23682H7.5044C7.0856 6.23682 6.74609 6.57632 6.74609 6.99512V16.0948C6.74609 16.5136 7.0856 16.8531 7.5044 16.8531H13.5709C13.9897 16.8531 14.3292 16.5136 14.3292 16.0948V6.99512C14.3292 6.57632 13.9897 6.23682 13.5709 6.23682Z" stroke="#0E1422" stroke-width="1.87959" stroke-linecap="round" stroke-linejoin="round"/>
<path d="M13.5709 21.3878H7.5044C7.0856 21.3878 6.74609 21.7272 6.74609 22.1461V25.1945C6.74609 25.6133 7.0856 25.9528 7.5044 25.9528H13.5709C13.9897 25.9528 14.3292 25.6133 14.3292 25.1945V22.1461C14.3292 21.7272 13.9897 21.3878 13.5709 21.3878Z" stroke="#0E1422" stroke-width="1.87959" stroke-linecap="round" stroke-linejoin="round"/>
</svg>
