<svg width="32" height="33" viewBox="0 0 32 33" fill="none" xmlns="http://www.w3.org/2000/svg">
<path d="M19.5684 21.7708V24.7751C19.5684 25.1735 19.4101 25.5556 19.1284 25.8373C18.8467 26.1189 18.4646 26.2773 18.0662 26.2773H7.551C7.15259 26.2773 6.77052 26.1189 6.4888 25.8373C6.20709 25.5556 6.04883 25.1735 6.04883 24.7751V8.2512C6.04883 7.85279 6.20709 7.47071 6.4888 7.189C6.77052 6.90729 7.15259 6.74902 7.551 6.74902H18.0662C18.4646 6.74902 18.8467 6.90729 19.1284 7.189C19.4101 7.47071 19.5684 7.85279 19.5684 8.2512V11.2555M15.0619 16.5131H25.5771M25.5771 16.5131L22.5727 13.5088M25.5771 16.5131L22.5727 19.5175" stroke="white" stroke-width="1.87959" stroke-linecap="round" stroke-linejoin="round"/>
</svg>
