<svg width="361" height="62" viewBox="0 0 361 62" fill="none" xmlns="http://www.w3.org/2000/svg">
<path d="M0.382812 25.8535H5.64042V61.3424H0.382812V25.8535Z" fill="#4078FF"/>
<path d="M13.5268 6.13749H18.7844V61.3424H13.5268V6.13749Z" fill="#4078FF"/>
<path d="M26.6708 12.7095H31.9285V61.3424H26.6708V12.7095Z" fill="#4078FF"/>
<path d="M39.8149 0.879883H45.0725V61.3424H39.8149V0.879883Z" fill="#4078FF"/>
<path d="M52.9589 8.76629H58.2165V61.3424H52.9589V8.76629Z" fill="#4078FF"/>
<path d="M66.1029 19.2815H71.3605V61.3424H66.1029V19.2815Z" fill="#4078FF"/>
<path d="M79.2469 42.9407H84.5045V61.3424H79.2469V42.9407Z" fill="#4078FF"/>
<path d="M92.3909 8.76629H97.6485V61.3424H92.3909V8.76629Z" fill="#4078FF"/>
<path d="M105.535 12.7095H110.793V61.3424H105.535V12.7095Z" fill="#4078FF"/>
<path d="M118.679 28.4823H123.937V61.3424H118.679V28.4823Z" fill="#4078FF"/>
<path d="M131.823 42.9407H137.081V61.3424H131.823V42.9407Z" fill="#4078FF"/>
<path d="M144.967 31.1111H150.225V61.3424H144.967V31.1111Z" fill="#4078FF"/>
<path d="M158.111 19.2815H163.369V61.3424H158.111V19.2815Z" fill="#4078FF"/>
<path d="M171.255 6.13749H176.513V61.3424H171.255V6.13749Z" fill="#4078FF"/>
<path d="M184.399 0.879883H189.657V61.3424H184.399V0.879883Z" fill="#4078FF"/>
<path d="M197.543 8.76629H202.801V61.3424H197.543V8.76629Z" fill="#4078FF"/>
<path d="M210.687 19.2815H215.945V61.3424H210.687V19.2815Z" fill="#4078FF"/>
<path d="M223.831 0.879883H229.089V61.3424H223.831V0.879883Z" fill="#4078FF"/>
<path d="M236.975 19.2815H242.233V61.3424H236.975V19.2815Z" fill="#4078FF"/>
<path d="M250.119 12.7095H255.377V61.3424H250.119V12.7095Z" fill="#4078FF"/>
<path d="M263.263 6.13749H268.521V61.3424H263.263V6.13749Z" fill="#4078FF"/>
<path d="M276.407 23.2247H281.665V61.3424H276.407V23.2247Z" fill="#4078FF"/>
<path d="M289.551 8.76629H294.809V61.3424H289.551V8.76629Z" fill="#4078FF"/>
<path d="M302.695 12.7095H307.953V61.3424H302.695V12.7095Z" fill="#4078FF"/>
<path d="M315.839 23.2247H321.097V61.3424H315.839V23.2247Z" fill="#4078FF"/>
<path d="M328.983 12.7095H334.241V61.3424H328.983V12.7095Z" fill="#4078FF"/>
<path d="M342.127 35.0543H347.385V61.3424H342.127V35.0543Z" fill="#4078FF"/>
<path d="M355.271 23.2247H360.529V61.3424H355.271V23.2247Z" fill="#4078FF"/>
</svg>
