<svg width="359" height="43" viewBox="0 0 359 43" fill="none" xmlns="http://www.w3.org/2000/svg">
<path d="M1.62882 22.2822V21.0276L5.51041 17.006C5.92489 16.5691 6.26656 16.1863 6.53542 15.8577C6.80801 15.5254 7.01151 15.2099 7.14594 14.9111C7.28037 14.6124 7.34758 14.295 7.34758 13.9589C7.34758 13.5781 7.25796 13.2495 7.07873 12.9731C6.89949 12.6931 6.65491 12.4784 6.34498 12.329C6.03505 12.1759 5.68591 12.0994 5.29756 12.0994C4.88681 12.0994 4.52834 12.1834 4.22214 12.3514C3.91595 12.5194 3.6807 12.7566 3.5164 13.0627C3.3521 13.3689 3.26995 13.7274 3.26995 14.1382H1.61761C1.61761 13.4399 1.77818 12.8294 2.09931 12.3066C2.42044 11.7838 2.86107 11.3787 3.42118 11.0911C3.9813 10.7999 4.61796 10.6543 5.33117 10.6543C6.05185 10.6543 6.68665 10.798 7.23556 11.0855C7.7882 11.3693 8.21949 11.7577 8.52942 12.2506C8.83935 12.7397 8.99432 13.2924 8.99432 13.9085C8.99432 14.3342 8.91403 14.7506 8.75347 15.1576C8.59664 15.5646 8.32218 16.0183 7.9301 16.5187C7.53802 17.0153 6.99284 17.6183 6.29457 18.3278L4.0149 20.7139V20.7979H9.17915V22.2822H1.62882ZM15.3068 22.4391C14.7952 22.4316 14.2911 22.3382 13.7945 22.159C13.3016 21.9798 12.8535 21.681 12.4502 21.2628C12.0469 20.8446 11.7239 20.2826 11.4812 19.5769C11.2422 18.8711 11.1228 17.9899 11.1228 16.9331C11.1228 15.9324 11.2217 15.0437 11.4196 14.267C11.6213 13.4903 11.9106 12.835 12.2878 12.301C12.6649 11.7633 13.1205 11.3544 13.6545 11.0743C14.1884 10.7943 14.7878 10.6543 15.4524 10.6543C16.1358 10.6543 16.7426 10.7887 17.2728 11.0575C17.803 11.3264 18.2325 11.6979 18.5611 12.1722C18.8934 12.6464 19.1044 13.186 19.194 13.7909H17.4856C17.3699 13.3129 17.1402 12.9227 16.7967 12.6203C16.4532 12.3178 16.0051 12.1666 15.4524 12.1666C14.6123 12.1666 13.9569 12.5325 13.4864 13.2644C13.0197 13.9963 12.7844 15.0138 12.7807 16.317H12.8647C13.0626 15.9921 13.3053 15.7158 13.5929 15.488C13.8841 15.2565 14.209 15.0792 14.5675 14.9559C14.9297 14.829 15.3105 14.7655 15.7101 14.7655C16.3748 14.7655 16.9759 14.9279 17.5137 15.2528C18.0551 15.5739 18.4864 16.0183 18.8075 16.5859C19.1287 17.1534 19.2892 17.8032 19.2892 18.5351C19.2892 19.2669 19.123 19.9297 18.7907 20.5235C18.4621 21.1172 17.9991 21.5877 17.4016 21.935C16.8042 22.2785 16.1059 22.4465 15.3068 22.4391ZM15.3012 20.9828C15.7418 20.9828 16.1358 20.8745 16.483 20.6579C16.8303 20.4413 17.1048 20.1501 17.3064 19.7841C17.5081 19.4182 17.6089 19.0093 17.6089 18.5575C17.6089 18.1168 17.5099 17.7154 17.312 17.3532C17.1178 16.991 16.849 16.7035 16.5054 16.4906C16.1656 16.2778 15.7773 16.1714 15.3404 16.1714C15.0081 16.1714 14.7 16.2349 14.4162 16.3618C14.1362 16.4888 13.8897 16.6643 13.6769 16.8883C13.464 17.1124 13.296 17.37 13.1728 17.6613C13.0533 17.9488 12.9935 18.2531 12.9935 18.5743C12.9935 19.0037 13.0925 19.4014 13.2904 19.7673C13.492 20.1333 13.7665 20.4282 14.1138 20.6523C14.4648 20.8726 14.8606 20.9828 15.3012 20.9828ZM25.3342 22.4391C24.8227 22.4316 24.3186 22.3382 23.8219 22.159C23.329 21.9798 22.8809 21.681 22.4777 21.2628C22.0744 20.8446 21.7514 20.2826 21.5087 19.5769C21.2697 18.8711 21.1502 17.9899 21.1502 16.9331C21.1502 15.9324 21.2491 15.0437 21.4471 14.267C21.6487 13.4903 21.9381 12.835 22.3152 12.301C22.6924 11.7633 23.1479 11.3544 23.6819 11.0743C24.2159 10.7943 24.8152 10.6543 25.4799 10.6543C26.1632 10.6543 26.77 10.7887 27.3002 11.0575C27.8305 11.3264 28.2599 11.6979 28.5885 12.1722C28.9208 12.6464 29.1318 13.186 29.2214 13.7909H27.5131C27.3973 13.3129 27.1677 12.9227 26.8242 12.6203C26.4806 12.3178 26.0325 12.1666 25.4799 12.1666C24.6397 12.1666 23.9844 12.5325 23.5139 13.2644C23.0471 13.9963 22.8119 15.0138 22.8081 16.317H22.8921C23.0901 15.9921 23.3328 15.7158 23.6203 15.488C23.9116 15.2565 24.2364 15.0792 24.5949 14.9559C24.9571 14.829 25.338 14.7655 25.7375 14.7655C26.4022 14.7655 27.0034 14.9279 27.5411 15.2528C28.0825 15.5739 28.5138 16.0183 28.835 16.5859C29.1561 17.1534 29.3167 17.8032 29.3167 18.5351C29.3167 19.2669 29.1505 19.9297 28.8182 20.5235C28.4896 21.1172 28.0265 21.5877 27.4291 21.935C26.8316 22.2785 26.1333 22.4465 25.3342 22.4391ZM25.3286 20.9828C25.7693 20.9828 26.1632 20.8745 26.5105 20.6579C26.8578 20.4413 27.1322 20.1501 27.3339 19.7841C27.5355 19.4182 27.6363 19.0093 27.6363 18.5575C27.6363 18.1168 27.5374 17.7154 27.3395 17.3532C27.1453 16.991 26.8764 16.7035 26.5329 16.4906C26.1931 16.2778 25.8047 16.1714 25.3679 16.1714C25.0355 16.1714 24.7275 16.2349 24.4437 16.3618C24.1636 16.4888 23.9172 16.6643 23.7043 16.8883C23.4915 17.1124 23.3234 17.37 23.2002 17.6613C23.0807 17.9488 23.021 18.2531 23.021 18.5743C23.021 19.0037 23.1199 19.4014 23.3178 19.7673C23.5195 20.1333 23.7939 20.4282 24.1412 20.6523C24.4922 20.8726 24.888 20.9828 25.3286 20.9828ZM35.688 22.2822V10.8111H37.4187V20.7923H42.6166V22.2822H35.688ZM48.1645 22.4559C47.3169 22.4559 46.5868 22.2748 45.9745 21.9126C45.3658 21.5466 44.8953 21.0332 44.563 20.3722C44.2344 19.7076 44.0701 18.929 44.0701 18.0366C44.0701 17.1553 44.2344 16.3786 44.563 15.7065C44.8953 15.0343 45.3583 14.5097 45.952 14.1326C46.5495 13.7554 47.2478 13.5668 48.0469 13.5668C48.5323 13.5668 49.0028 13.6471 49.4584 13.8077C49.9139 13.9683 50.3228 14.2203 50.685 14.5639C51.0472 14.9074 51.3329 15.3536 51.542 15.9025C51.7511 16.4477 51.8557 17.1105 51.8557 17.8909V18.4847H45.0167V17.23H50.2145C50.2145 16.7894 50.1249 16.3992 49.9457 16.0594C49.7664 15.7158 49.5144 15.4451 49.1895 15.2472C48.8684 15.0493 48.4912 14.9503 48.0581 14.9503C47.5876 14.9503 47.1768 15.0661 46.8258 15.2976C46.4786 15.5254 46.2097 15.8241 46.0193 16.1938C45.8326 16.5597 45.7392 16.9574 45.7392 17.3868V18.367C45.7392 18.9421 45.84 19.4312 46.0417 19.8345C46.247 20.2378 46.5327 20.5459 46.8986 20.7587C47.2646 20.9678 47.6921 21.0724 48.1813 21.0724C48.4987 21.0724 48.7881 21.0276 49.0495 20.938C49.3109 20.8446 49.5368 20.7064 49.7272 20.5235C49.9177 20.3405 50.0633 20.1146 50.1641 19.8457L51.7492 20.1314C51.6223 20.5981 51.3945 21.007 51.0659 21.358C50.741 21.7053 50.3321 21.976 49.8392 22.1702C49.3501 22.3606 48.7918 22.4559 48.1645 22.4559ZM57.8083 13.6789V15.0231H52.9465V13.6789H57.8083ZM54.2795 22.2822V12.6819C54.2795 12.1442 54.3972 11.6979 54.6324 11.3432C54.8677 10.9847 55.1795 10.7177 55.5678 10.5422C55.9562 10.363 56.3781 10.2734 56.8337 10.2734C57.1697 10.2734 57.4573 10.3014 57.6962 10.3574C57.9352 10.4097 58.1126 10.4582 58.2284 10.503L57.8363 11.8585C57.7579 11.8361 57.657 11.81 57.5338 11.7801C57.4106 11.7465 57.2612 11.7297 57.0857 11.7297C56.6787 11.7297 56.3874 11.8305 56.2119 12.0321C56.0402 12.2338 55.9543 12.525 55.9543 12.9059V22.2822H54.2795ZM63.5522 13.6789V15.0231H58.8529V13.6789H63.5522ZM60.1131 11.6177H61.7879V19.7561C61.7879 20.081 61.8364 20.3256 61.9335 20.4899C62.0306 20.6504 62.1557 20.7606 62.3088 20.8203C62.4656 20.8763 62.6355 20.9043 62.8185 20.9043C62.9529 20.9043 63.0705 20.895 63.1714 20.8763C63.2722 20.8577 63.3506 20.8427 63.4066 20.8315L63.7091 22.215C63.612 22.2524 63.4738 22.2897 63.2946 22.327C63.1154 22.3681 62.8913 22.3905 62.6225 22.3942C62.1818 22.4017 61.7711 22.3233 61.3902 22.159C61.0093 21.9947 60.7013 21.7408 60.466 21.3972C60.2308 21.0537 60.1131 20.6224 60.1131 20.1034V11.6177Z" fill="#5C5F6A"/>
<g clip-path="url(#clip0_192_12452)">
<rect x="0.525391" y="32.2822" width="357.517" height="10.5152" rx="5.25761" fill="#F0F1FF"/>
<rect x="0.525391" y="32.2822" width="290.483" height="10.5152" rx="5.25761" fill="#4078FF"/>
</g>
<defs>
<clipPath id="clip0_192_12452">
<rect x="0.525391" y="32.2822" width="357.517" height="10.5152" rx="5.25761" fill="white"/>
</clipPath>
</defs>
</svg>
