<svg width="132" height="130" viewBox="0 0 132 130" fill="none" xmlns="http://www.w3.org/2000/svg">
<mask id="path-1-outside-1_192_12418" maskUnits="userSpaceOnUse" x="62.8965" y="0.215332" width="69" height="121" fill="black">
<rect fill="white" x="62.8965" y="0.215332" width="69" height="121"/>
<path d="M65.9878 3.21533C79.3113 3.21533 92.2929 7.4333 103.072 15.2647C113.851 23.0961 121.874 34.1389 125.991 46.8103C130.108 59.4818 130.108 73.1314 125.991 85.8029C121.874 98.4743 113.851 109.517 103.072 117.349L95.655 107.14C104.278 100.875 110.697 92.0408 113.99 81.9036C117.284 71.7665 117.284 60.8468 113.99 50.7096C110.697 40.5724 104.278 31.7382 95.6551 25.4731C87.0319 19.208 76.6466 15.8336 65.9878 15.8336V3.21533Z"/>
</mask>
<path d="M65.9878 3.21533C79.3113 3.21533 92.2929 7.4333 103.072 15.2647C113.851 23.0961 121.874 34.1389 125.991 46.8103C130.108 59.4818 130.108 73.1314 125.991 85.8029C121.874 98.4743 113.851 109.517 103.072 117.349L95.655 107.14C104.278 100.875 110.697 92.0408 113.99 81.9036C117.284 71.7665 117.284 60.8468 113.99 50.7096C110.697 40.5724 104.278 31.7382 95.6551 25.4731C87.0319 19.208 76.6466 15.8336 65.9878 15.8336V3.21533Z" fill="#4078FF"/>
<path d="M65.9878 3.21533C79.3113 3.21533 92.2929 7.4333 103.072 15.2647C113.851 23.0961 121.874 34.1389 125.991 46.8103C130.108 59.4818 130.108 73.1314 125.991 85.8029C121.874 98.4743 113.851 109.517 103.072 117.349L95.655 107.14C104.278 100.875 110.697 92.0408 113.99 81.9036C117.284 71.7665 117.284 60.8468 113.99 50.7096C110.697 40.5724 104.278 31.7382 95.6551 25.4731C87.0319 19.208 76.6466 15.8336 65.9878 15.8336V3.21533Z" stroke="white" stroke-width="5.25761" mask="url(#path-1-outside-1_192_12418)"/>
<mask id="path-2-outside-2_192_12418" maskUnits="userSpaceOnUse" x="1.89648" y="60.2163" width="81" height="41" fill="black">
<rect fill="white" x="1.89648" y="60.2163" width="81" height="41"/>
<path d="M79.1037 90.0538C72.9747 94.5052 65.8793 97.4429 58.3974 98.6266C50.9156 99.8103 43.2598 99.2065 36.0561 96.8645C28.8523 94.5226 22.3051 90.5089 16.9497 85.1518C11.5943 79.7946 7.58288 73.2461 5.2433 66.0415L14.3739 63.0765C16.2456 68.8401 19.4548 74.079 23.7391 78.3647C28.0234 82.6504 33.2611 85.8613 39.0241 87.7349C44.7872 89.6085 50.9118 90.0915 56.8972 89.1445C62.8827 88.1976 68.5591 85.8474 73.4623 82.2863L79.1037 90.0538Z"/>
</mask>
<path d="M79.1037 90.0538C72.9747 94.5052 65.8793 97.4429 58.3974 98.6266C50.9156 99.8103 43.2598 99.2065 36.0561 96.8645C28.8523 94.5226 22.3051 90.5089 16.9497 85.1518C11.5943 79.7946 7.58288 73.2461 5.2433 66.0415L14.3739 63.0765C16.2456 68.8401 19.4548 74.079 23.7391 78.3647C28.0234 82.6504 33.2611 85.8613 39.0241 87.7349C44.7872 89.6085 50.9118 90.0915 56.8972 89.1445C62.8827 88.1976 68.5591 85.8474 73.4623 82.2863L79.1037 90.0538Z" fill="#728FFF"/>
<path d="M79.1037 90.0538C72.9747 94.5052 65.8793 97.4429 58.3974 98.6266C50.9156 99.8103 43.2598 99.2065 36.0561 96.8645C28.8523 94.5226 22.3051 90.5089 16.9497 85.1518C11.5943 79.7946 7.58288 73.2461 5.2433 66.0415L14.3739 63.0765C16.2456 68.8401 19.4548 74.079 23.7391 78.3647C28.0234 82.6504 33.2611 85.8613 39.0241 87.7349C44.7872 89.6085 50.9118 90.0915 56.8972 89.1445C62.8827 88.1976 68.5591 85.8474 73.4623 82.2863L79.1037 90.0538Z" stroke="white" stroke-width="4" mask="url(#path-2-outside-2_192_12418)"/>
<mask id="path-3-outside-3_192_12418" maskUnits="userSpaceOnUse" x="-0.103516" y="0.215332" width="69" height="89" fill="black">
<rect fill="white" x="-0.103516" y="0.215332" width="69" height="89"/>
<path d="M5.97659 85.7788C2.90367 76.3085 2.11573 66.2453 3.6772 56.412C5.23866 46.5788 9.1052 37.2547 14.9607 29.2021C20.8161 21.1495 28.4943 14.597 37.3674 10.0804C46.2404 5.56385 56.0565 3.21137 66.0129 3.21534L66.0079 15.8336C58.0427 15.8304 50.1899 17.7124 43.0914 21.3257C35.993 24.9389 29.8505 30.1809 25.1661 36.623C20.4817 43.0651 17.3885 50.5243 16.1393 58.3909C14.8901 66.2575 15.5205 74.3081 17.9788 81.8844L5.97659 85.7788Z"/>
</mask>
<path d="M5.97659 85.7788C2.90367 76.3085 2.11573 66.2453 3.6772 56.412C5.23866 46.5788 9.1052 37.2547 14.9607 29.2021C20.8161 21.1495 28.4943 14.597 37.3674 10.0804C46.2404 5.56385 56.0565 3.21137 66.0129 3.21534L66.0079 15.8336C58.0427 15.8304 50.1899 17.7124 43.0914 21.3257C35.993 24.9389 29.8505 30.1809 25.1661 36.623C20.4817 43.0651 17.3885 50.5243 16.1393 58.3909C14.8901 66.2575 15.5205 74.3081 17.9788 81.8844L5.97659 85.7788Z" fill="#A8B2FF"/>
<path d="M5.97659 85.7788C2.90367 76.3085 2.11573 66.2453 3.6772 56.412C5.23866 46.5788 9.1052 37.2547 14.9607 29.2021C20.8161 21.1495 28.4943 14.597 37.3674 10.0804C46.2404 5.56385 56.0565 3.21137 66.0129 3.21534L66.0079 15.8336C58.0427 15.8304 50.1899 17.7124 43.0914 21.3257C35.993 24.9389 29.8505 30.1809 25.1661 36.623C20.4817 43.0651 17.3885 50.5243 16.1393 58.3909C14.8901 66.2575 15.5205 74.3081 17.9788 81.8844L5.97659 85.7788Z" stroke="white" stroke-width="5.25761" mask="url(#path-3-outside-3_192_12418)"/>
</svg>
