<svg width="348" height="62" viewBox="0 0 348 62" fill="none" xmlns="http://www.w3.org/2000/svg">
<path d="M1.62109 59.9118L13.5414 42.42L25.4616 5.71199L37.3819 56.8323L49.3021 57.9409L61.2224 54.2455L73.1427 2.50928L85.0629 13.7804L96.9832 34.4133L108.903 11.132L120.824 9.59221L132.744 31.149L144.664 28.3158L156.585 35.2139L168.505 21.9719L180.425 54.2455L192.345 9.40744L204.266 45.9923L216.186 13.0413L228.106 17.291L240.026 39.7716L251.947 45.9307L263.867 46.3619L275.787 51.1043L287.707 21.1097L299.628 47.2241L311.548 37.9855L323.468 6.75904L335.388 58.4336L347.309 60.3429" stroke="#4078FF" stroke-width="1.9716"/>
</svg>
