<svg width="33" height="32" viewBox="0 0 33 32" fill="none" xmlns="http://www.w3.org/2000/svg">
<path d="M4.77539 4.38672H9.22228L10.8066 20.1292C10.8724 20.5632 11.093 20.9587 11.4276 21.243C11.7622 21.5273 12.1884 21.6811 12.6276 21.6762H24.0999C24.497 21.6969 24.8899 21.5871 25.2188 21.3636C25.5476 21.1402 25.7942 20.8153 25.9209 20.4386L28.3428 13.1588C28.4333 12.8852 28.4573 12.5939 28.413 12.3091C28.3687 12.0243 28.2572 11.7542 28.0879 11.5209C27.9116 11.2728 27.6759 11.0728 27.4023 10.9393C27.1287 10.8058 26.826 10.7429 26.5218 10.7565H9.85963M16.0292 14.3964V18.0363M21.4922 14.3964V18.0363M23.7903 28.0459C23.5488 28.0459 23.3172 27.9501 23.1465 27.7794C22.9757 27.6088 22.8798 27.3773 22.8798 27.136C22.8798 26.8946 22.9757 26.6632 23.1465 26.4925C23.3172 26.3219 23.5488 26.226 23.7903 26.226C24.0318 26.226 24.2634 26.3219 24.4341 26.4925C24.6049 26.6632 24.7008 26.8946 24.7008 27.136C24.7008 27.3773 24.6049 27.6088 24.4341 27.7794C24.2634 27.9501 24.0318 28.0459 23.7903 28.0459ZM11.9538 28.0459C11.7123 28.0459 11.4807 27.9501 11.31 27.7794C11.1392 27.6088 11.0433 27.3773 11.0433 27.136C11.0433 26.8946 11.1392 26.6632 11.31 26.4925C11.4807 26.3219 11.7123 26.226 11.9538 26.226C12.1953 26.226 12.4269 26.3219 12.5976 26.4925C12.7684 26.6632 12.8643 26.8946 12.8643 27.136C12.8643 27.3773 12.7684 27.6088 12.5976 27.7794C12.4269 27.9501 12.1953 28.0459 11.9538 28.0459Z" stroke="#5C5F6A" stroke-width="1.87772" stroke-linecap="round" stroke-linejoin="round"/>
</svg>
