<svg width="33" height="32" viewBox="0 0 33 32" fill="none" xmlns="http://www.w3.org/2000/svg">
<path d="M7.70757 13.0885H25.5025M7.70757 13.0885V23.8227C7.70757 24.2294 7.87801 24.6195 8.18138 24.9071C8.48477 25.1946 8.89624 25.3562 9.32529 25.3562H23.8848C24.3138 25.3562 24.7254 25.1946 25.0287 24.9071C25.332 24.6195 25.5025 24.2294 25.5025 23.8227V13.0885M7.70757 13.0885C6.81412 13.0885 6.08984 12.4019 6.08984 11.555V8.48806C6.08984 7.64115 6.81412 6.95459 7.70757 6.95459H25.5025C26.396 6.95459 27.1203 7.64115 27.1203 8.48806V11.555C27.1203 12.4019 26.396 13.0885 25.5025 13.0885M14.1785 17.6889H19.0316" stroke="#5C5F6A" stroke-width="1.87772" stroke-linecap="round" stroke-linejoin="round"/>
</svg>
