<svg width="33" height="33" viewBox="0 0 33 33" fill="none" xmlns="http://www.w3.org/2000/svg">
<path d="M13.4864 8.23452L14.244 6.32662C14.3718 6.00358 14.5966 5.72573 14.889 5.52944C15.1814 5.33315 15.5277 5.22759 15.8826 5.22656H17.3274C17.6824 5.22759 18.0287 5.33315 18.3211 5.52944C18.6135 5.72573 18.8383 6.00358 18.966 6.32662L19.7237 8.23452L22.2961 9.67834L24.3752 9.36895C24.7214 9.32311 25.0738 9.37869 25.3876 9.52866C25.7012 9.67863 25.9621 9.91619 26.1371 10.2112L26.8419 11.4144C27.0225 11.714 27.1058 12.0601 27.0806 12.4068C27.0554 12.7536 26.9231 13.0848 26.7009 13.3566L25.4147 14.9552V17.8428L26.7362 19.4413C26.9583 19.7132 27.0907 20.0443 27.1159 20.3911C27.1411 20.7379 27.0577 21.0839 26.8771 21.3836L26.1723 22.5868C25.9974 22.8817 25.7364 23.1193 25.4228 23.2693C25.109 23.4192 24.7566 23.4749 24.4104 23.429L22.3313 23.1196L19.7589 24.5634L19.0013 26.4713C18.8735 26.7943 18.6487 27.0722 18.3563 27.2685C18.0639 27.4648 17.7176 27.5704 17.3627 27.5714H15.8826C15.5277 27.5704 15.1814 27.4648 14.889 27.2685C14.5966 27.0722 14.3718 26.7943 14.244 26.4713L13.4864 24.5634L10.9139 23.1196L8.83485 23.429C8.48866 23.4749 8.1363 23.4192 7.82257 23.2693C7.50886 23.1193 7.24791 22.8817 7.0729 22.5868L6.36812 21.3836C6.18752 21.0839 6.10432 20.7379 6.12948 20.3911C6.15464 20.0443 6.287 19.7132 6.50908 19.4413L7.7953 17.8428V14.9552L6.47384 13.3566C6.25176 13.0848 6.1194 12.7536 6.09424 12.4068C6.06908 12.0601 6.15228 11.714 6.33288 11.4144L7.03766 10.2112C7.21267 9.91619 7.47362 9.67863 7.78733 9.52866C8.10107 9.37869 8.45342 9.32311 8.79961 9.36895L10.8787 9.67834L13.4864 8.23452ZM13.0811 16.399C13.0811 17.0789 13.2878 17.7435 13.675 18.3088C14.0622 18.8742 14.6126 19.3148 15.2565 19.575C15.9004 19.8351 16.6089 19.9032 17.2925 19.7706C17.9761 19.6379 18.604 19.3105 19.0968 18.8298C19.5896 18.349 19.9252 17.7365 20.0612 17.0696C20.1972 16.4028 20.1274 15.7116 19.8607 15.0834C19.594 14.4553 19.1423 13.9184 18.5628 13.5407C17.9833 13.1629 17.302 12.9613 16.605 12.9613C15.6704 12.9613 14.7741 13.3235 14.1133 13.9682C13.4524 14.6129 13.0811 15.4873 13.0811 16.399Z" stroke="#5C5F6A" stroke-width="1.87772" stroke-linecap="round" stroke-linejoin="round"/>
</svg>
