<svg width="39" height="34" viewBox="0 0 39 34" fill="none" xmlns="http://www.w3.org/2000/svg">
<g clip-path="url(#clip0_444_1224)">
<path d="M12.7602 18.5037C11.6859 18.5126 10.6131 18.5037 9.54022 18.5037H7.04181V16.3083H7.74723C11.1137 16.3083 14.4802 16.3083 17.8467 16.3083C18.3684 16.3083 18.8226 16.169 18.8079 15.5676C18.7932 14.9662 18.3552 14.8269 17.8291 14.8269C14.0471 14.8329 10.2657 14.8329 6.48481 14.8269C5.81464 14.8269 5.49866 15.1143 5.50748 15.8032C5.52218 16.9883 5.50748 18.163 5.50748 19.3436C5.50748 21.3998 5.50748 23.4544 5.50748 25.5461H2.33597C2.32128 25.398 2.3051 25.3017 2.3051 25.2069C2.3051 19.874 2.3051 14.541 2.28893 9.19774C2.28893 8.73111 2.51526 8.55632 2.843 8.36226C6.18695 6.38711 9.52552 4.40456 12.8587 2.41459C13.2893 2.15683 13.6053 2.14942 14.0344 2.40718C17.6027 4.52849 21.1887 6.62017 24.7629 8.72667C25.2244 8.99925 25.6873 9.17111 26.0224 8.60078C26.3575 8.03045 25.9401 7.71195 25.4933 7.44234C21.681 5.20548 17.8702 2.96564 14.0609 0.722847C13.6347 0.471015 13.2717 0.453264 12.8396 0.712504C8.84311 3.10639 4.84221 5.49235 0.836914 7.87044V26.6112C1.19992 26.7593 1.55999 27.0304 1.92446 27.0364C4.50958 27.0749 7.09618 27.0601 9.68278 27.0615C10.4867 27.0615 11.2994 27.1149 12.0945 27.0319C12.362 27.0038 12.5912 26.6231 12.8396 26.4038C12.6271 26.1219 12.3895 25.8601 12.1298 25.6217C12.0078 25.5254 11.752 25.6009 11.5566 25.6009H7.03004V23.3789C7.6473 23.3789 8.20577 23.3789 8.76424 23.3789C9.93996 23.3789 11.1069 23.4085 12.2752 23.3463C12.5089 23.3329 12.725 22.9656 12.9498 22.7537C12.7308 22.5671 12.5339 22.3315 12.2841 22.2101C12.1048 22.1242 11.8535 22.1908 11.633 22.1908H7.02123V19.7184C7.13117 19.6992 7.24204 19.6859 7.35338 19.6784C9.15811 19.6784 10.9633 19.6784 12.7691 19.6784C13.1923 19.6784 13.5979 19.6088 13.5862 19.074C13.5744 18.5393 13.1879 18.4992 12.7602 18.5037Z" fill="white"/>
<path d="M30.4796 27.0939C30.265 27.128 30.0622 27.3798 29.9035 27.5783C29.8392 27.7114 29.8241 27.8632 29.8609 28.0064C29.952 28.5723 29.686 28.8152 29.1789 29.0167C27.5623 29.6566 25.9854 30.3573 24.3908 31.0299C24.1777 31.1188 23.9499 31.1869 23.6677 31.2906C23.6677 28.7323 23.6677 26.2762 23.681 23.8186C23.6888 23.7189 23.7194 23.6223 23.7704 23.5365C23.8214 23.4506 23.8914 23.3779 23.9749 23.3238C25.8854 22.4883 27.821 21.6795 29.8461 20.8218C29.8461 21.5032 29.8461 22.0424 29.8461 22.5831C29.8461 23.0972 30.0401 23.472 30.581 23.4853C31.1218 23.4986 31.3158 23.1016 31.3158 22.5891C31.3158 21.5521 31.2849 20.524 31.3158 19.493C31.332 18.9612 31.1086 18.6783 30.653 18.4827C28.2766 17.4635 25.9104 16.4236 23.5281 15.4192C23.2623 15.3189 22.9694 15.3189 22.7036 15.4192C20.2993 16.4325 17.9037 17.467 15.517 18.5227C14.8792 18.8057 14.4986 19.3093 14.503 20.0737C14.5157 22.9999 14.5157 25.9261 14.503 28.8523C14.503 29.4448 14.7043 29.7959 15.2701 30.0285C17.6392 31.0003 19.9848 32.0283 22.3583 32.9912C22.7328 33.1283 23.1433 33.1283 23.5178 32.9912C25.8443 32.0461 28.1502 31.0506 30.4619 30.0685C31.2497 29.7337 31.7082 28.0686 31.1674 27.3902C31.0822 27.2918 30.9761 27.2142 30.8571 27.1629C30.738 27.1116 30.6089 27.088 30.4796 27.0939ZM17.6436 19.2012C19.2044 18.5242 20.7784 17.8679 22.3245 17.1628C22.8785 16.9095 23.3532 16.8665 23.8926 17.1628C24.2291 17.3539 24.598 17.4872 25.1344 17.7302L22.0482 19.053C21.5338 19.2723 20.9871 19.4367 20.5109 19.7211C19.3043 20.4411 18.1507 20.487 17.0014 19.5048C17.1954 19.4174 17.4158 19.3004 17.6436 19.2012ZM22.1701 30.9854C22.1511 31.0843 22.1211 31.1807 22.0805 31.2728C21.1487 30.8847 20.2346 30.5069 19.322 30.1248C18.3784 29.7292 17.4276 29.35 16.5002 28.916C16.2871 28.8167 16.0196 28.5249 16.0167 28.3234C15.9829 25.8703 15.9947 23.4157 15.9947 20.8188C18.0154 21.6751 19.9216 22.4735 21.816 23.3031C21.9122 23.359 21.9943 23.4367 22.0558 23.53C22.1172 23.6233 22.1564 23.7297 22.1701 23.8408C22.1922 26.2184 22.1775 28.6019 22.1701 30.9854ZM20.8621 21.1832C22.8653 20.327 24.8302 19.4812 26.7996 18.6649C27.0069 18.6114 27.2262 18.6307 27.4212 18.7197C27.9812 18.936 28.5264 19.1908 29.2127 19.4901C28.2281 19.9122 27.3639 20.2855 26.4968 20.6529C25.8017 20.9492 25.0433 21.1403 24.4217 21.5417C23.1313 22.3861 22.0364 21.8958 20.8695 21.1832H20.8621Z" fill="white"/>
<path d="M20.9308 27.7577C20.3283 27.3696 19.6316 27.1311 18.8468 26.7786C18.5911 27.0185 18.2075 27.2156 18.1443 27.4881C18.0811 27.7607 18.2325 28.2777 18.4559 28.4155C19.0139 28.7599 19.624 29.0101 20.2621 29.1562C20.5178 29.2125 21.0058 28.9547 21.1189 28.7118C21.2321 28.4688 21.1307 27.8851 20.9308 27.7577Z" fill="white"/>
<path d="M6.43755 11.2566C6.38105 11.2604 6.32438 11.2522 6.27121 11.2326C6.21804 11.2129 6.16955 11.1822 6.12891 11.1425C6.05459 11.0577 6.01517 10.9475 6.01868 10.8344H5.28386C5.27854 10.9828 5.30568 11.1306 5.36333 11.2673C5.42098 11.404 5.50774 11.5263 5.61747 11.6254C5.82163 11.7689 6.0586 11.8577 6.30614 11.8836C6.55368 11.9096 6.8037 11.8717 7.03275 11.7736C7.18421 11.7013 7.3114 11.5859 7.39869 11.4417C7.484 11.2945 7.52723 11.1263 7.52361 10.9558C7.53077 10.7767 7.47911 10.6002 7.37664 10.4537C7.27648 10.321 7.13778 10.2231 6.97984 10.1737V10.1559C7.12719 10.1024 7.25372 10.0028 7.34096 9.87168C7.42821 9.74057 7.47161 9.58478 7.46484 9.42706C7.46872 9.2664 7.42546 9.10817 7.3405 8.97219C7.25553 8.83622 7.13263 8.72855 6.9872 8.66268C6.80924 8.58132 6.61526 8.5418 6.41992 8.54713C6.13424 8.53144 5.85297 8.62331 5.63071 8.80489C5.53008 8.89921 5.4505 9.01404 5.39729 9.14174C5.34408 9.26945 5.31844 9.40711 5.32207 9.54557H6.0569C6.06273 9.45337 6.09603 9.36509 6.15243 9.29227C6.18281 9.25658 6.22119 9.2287 6.26437 9.21093C6.30756 9.19315 6.35433 9.18601 6.40081 9.19006C6.44509 9.18756 6.48941 9.19413 6.53109 9.20941C6.57277 9.22469 6.61094 9.24834 6.64329 9.27892C6.6739 9.31225 6.69751 9.35148 6.71266 9.39425C6.72782 9.43703 6.73422 9.48248 6.73148 9.52782C6.73608 9.58235 6.7256 9.63707 6.70122 9.68597C6.67683 9.73487 6.63949 9.776 6.59332 9.80481C6.48033 9.8615 6.35497 9.88851 6.22885 9.88333H6.08189V10.501H6.22885C6.37852 10.4892 6.52832 10.5222 6.65947 10.5959C6.70568 10.6321 6.74213 10.6794 6.7655 10.7335C6.78886 10.7876 6.79838 10.8467 6.7932 10.9055C6.79555 10.9535 6.78846 11.0015 6.77231 11.0468C6.75617 11.0921 6.7313 11.1336 6.69914 11.1691C6.66354 11.2006 6.62206 11.2245 6.57712 11.2396C6.53219 11.2546 6.48474 11.2603 6.43755 11.2566Z" fill="white"/>
<path d="M9.07395 8.54712C8.63894 8.54712 8.32395 8.69526 8.12898 8.99153C7.91499 9.35484 7.8127 9.77395 7.83505 10.1959C7.83505 10.7114 7.93302 11.1158 8.12898 11.4091C8.32493 11.7024 8.63992 11.8506 9.07395 11.8535C9.50897 11.8535 9.82447 11.7054 10.0204 11.4091C10.2164 11.1129 10.3144 10.7084 10.3144 10.1959C10.3144 9.68627 10.2164 9.28484 10.0204 8.99153C9.82447 8.69822 9.50897 8.55008 9.07395 8.54712ZM9.5369 10.6907C9.51868 10.8091 9.46775 10.92 9.38993 11.0106C9.30206 11.0899 9.18824 11.1338 9.07028 11.1338C8.95231 11.1338 8.83851 11.0899 8.75064 11.0106C8.67289 10.9199 8.62197 10.8091 8.60367 10.6907C8.57764 10.5256 8.56584 10.3586 8.5684 10.1915C8.55862 9.95682 8.59148 9.72234 8.66539 9.49963C8.70437 9.42658 8.76227 9.36554 8.83291 9.32299C8.90355 9.28044 8.9843 9.258 9.0666 9.258C9.14889 9.258 9.22966 9.28044 9.3003 9.32299C9.37095 9.36554 9.42884 9.42658 9.46783 9.49963C9.54174 9.72234 9.5746 9.95682 9.56481 10.1915C9.56997 10.3593 9.56064 10.5274 9.5369 10.6936V10.6907Z" fill="white"/>
<path d="M13.47 8.93672C13.2052 8.80146 12.9114 8.73431 12.6146 8.7412H11.4551V11.861H12.6146C12.9109 11.8674 13.2041 11.8002 13.4685 11.6654C13.7073 11.5415 13.905 11.35 14.0373 11.1144C14.1686 10.8632 14.2372 10.5835 14.2372 10.2996C14.2372 10.0157 14.1686 9.73604 14.0373 9.48485C13.9046 9.25081 13.7076 9.06042 13.47 8.93672ZM13.2319 10.9677C13.1421 11.0497 13.0369 11.1127 12.9226 11.1532C12.8083 11.1936 12.6871 11.2106 12.5661 11.2032H12.209V9.39003H12.5661C12.6878 9.37779 12.8107 9.39294 12.9259 9.4344C13.0411 9.47586 13.1457 9.5426 13.2322 9.62977C13.3186 9.71694 13.3848 9.82236 13.4259 9.93845C13.4671 10.0545 13.4821 10.1784 13.47 10.3011C13.4772 10.423 13.4594 10.5452 13.4176 10.6599C13.3759 10.7746 13.3112 10.8794 13.2275 10.9677H13.2319Z" fill="white"/>
<path d="M16.974 11.8611V9.38125H16.2201V9.73235C16.1484 9.61452 16.0469 9.51794 15.9262 9.45238C15.7851 9.37885 15.6279 9.34215 15.4691 9.34569C15.2744 9.34338 15.0832 9.39737 14.918 9.50124C14.7494 9.60967 14.6145 9.76366 14.5285 9.94565C14.4338 10.1567 14.3848 10.3858 14.3848 10.6175C14.3848 10.8492 14.4338 11.0782 14.5285 11.2893C14.6151 11.4709 14.7499 11.6247 14.918 11.7337C15.0812 11.8387 15.2711 11.8938 15.4647 11.8922C15.6235 11.8957 15.7807 11.8591 15.9218 11.7855C16.0459 11.7204 16.1512 11.6239 16.2275 11.5055V11.8566L16.974 11.8611ZM16.0643 11.07C16.0157 11.1229 15.9565 11.1649 15.8906 11.1932C15.8248 11.2216 15.7538 11.2356 15.6822 11.2344C15.6106 11.2354 15.5396 11.2209 15.474 11.1921C15.4084 11.1632 15.3496 11.1206 15.3016 11.0671C15.1939 10.9452 15.1375 10.7858 15.1443 10.6226C15.1403 10.5418 15.1521 10.4609 15.1791 10.3847C15.2061 10.3084 15.2477 10.2383 15.3016 10.1782C15.3511 10.1267 15.4103 10.0857 15.4758 10.0577C15.5413 10.0297 15.6118 10.0152 15.6829 10.0152C15.7541 10.0152 15.8246 10.0297 15.8901 10.0577C15.9556 10.0857 16.0149 10.1267 16.0643 10.1782C16.1652 10.3058 16.2201 10.464 16.2201 10.6271C16.2201 10.7902 16.1652 10.9484 16.0643 11.076V11.07Z" fill="white"/>
<path d="M18.3591 13.0388L19.9022 9.38135H19.0865L18.5222 10.9323L17.9534 9.38135H17.1113L18.1122 11.7767L17.5478 13.0388H18.3591Z" fill="white"/>
<path d="M21.2544 11.2804C21.1889 11.3215 21.1124 11.3412 21.0354 11.3367C20.9423 11.3397 20.8509 11.3116 20.7753 11.2567C20.742 11.2323 20.7143 11.201 20.6938 11.165C20.6732 11.1291 20.6605 11.0891 20.6563 11.0478H19.9111C19.922 11.2051 19.9787 11.3556 20.0743 11.4804C20.1782 11.6149 20.3149 11.7201 20.4711 11.7856C20.6524 11.8624 20.8476 11.9002 21.0442 11.8967C21.2248 11.9004 21.4043 11.8671 21.5718 11.7989C21.7105 11.7433 21.8311 11.65 21.9202 11.5293C22.0005 11.4162 22.0427 11.2802 22.0407 11.1412C22.0457 10.9923 21.9983 10.8464 21.9069 10.7293C21.8257 10.6313 21.7217 10.555 21.6042 10.5071C21.4601 10.4519 21.3129 10.4054 21.1633 10.3679C21.0434 10.3445 20.9262 10.3087 20.8135 10.2613C20.7807 10.2494 20.7522 10.2278 20.732 10.1992C20.7118 10.1705 20.7007 10.1364 20.7003 10.1013C20.6995 10.0737 20.7055 10.0464 20.7178 10.0218C20.7301 9.9972 20.7484 9.97615 20.7709 9.96053C20.8317 9.92295 20.9025 9.90534 20.9737 9.91015C21.0631 9.90588 21.1512 9.93254 21.2235 9.9857C21.2549 10.0104 21.281 10.0412 21.3002 10.0764C21.3194 10.1115 21.3313 10.1502 21.3352 10.1901H22.0319C22.0146 9.95298 21.9046 9.73239 21.7262 9.57684C21.5175 9.41184 21.2561 9.32962 20.9913 9.34574C20.8064 9.34116 20.6226 9.37602 20.452 9.44798C20.3135 9.50536 20.1941 9.60146 20.1081 9.72498C20.0306 9.83985 19.9897 9.97573 19.9905 10.1146C19.9828 10.2597 20.0284 10.4026 20.1184 10.516C20.2003 10.6129 20.3048 10.6878 20.4226 10.7338C20.5664 10.7879 20.7137 10.8319 20.8635 10.8656C20.9854 10.8931 21.1049 10.9307 21.2206 10.9782C21.2485 10.9898 21.2729 11.0087 21.2911 11.033C21.3093 11.0573 21.3208 11.086 21.3242 11.1163C21.3277 11.1465 21.323 11.1772 21.3107 11.205C21.2985 11.2328 21.279 11.2568 21.2544 11.2745V11.2804Z" fill="white"/>
</g>
<defs>
<clipPath id="clip0_444_1224">
<rect width="37.4938" height="32.5604" fill="white" transform="translate(0.847656 0.52124)"/>
</clipPath>
</defs>
</svg>
