<svg width="38" height="37" viewBox="0 0 38 37" fill="none" xmlns="http://www.w3.org/2000/svg">
<g clip-path="url(#clip0_444_1211)">
<path d="M8.84638 36.8144H8.34749C8.21705 36.6983 8.08186 36.5878 7.95904 36.4641C5.70765 34.2157 3.45689 31.9657 1.20677 29.7142C0.724059 29.2306 0.730723 28.9032 1.2182 28.4111C2.0151 27.6124 2.81963 26.8223 3.60415 26.0113C3.73515 25.8682 3.81515 25.6858 3.83171 25.4925C3.86503 24.9004 3.86788 24.3055 3.8517 23.7125C3.83989 23.5426 3.77304 23.3812 3.66128 23.2527C3.18523 22.7101 2.67967 22.1876 2.18934 21.6545C1.87705 21.3156 1.83802 21.0662 2.03415 20.6531C2.34358 20.0001 2.66539 19.3528 2.96244 18.6941C3.0148 18.559 3.0148 18.4093 2.96244 18.2743C2.67015 17.6137 2.36167 16.9597 2.04462 16.3105C1.8542 15.9298 1.91132 15.6109 2.20552 15.3082C2.68157 14.8151 3.14715 14.303 3.62891 13.8118C3.7114 13.7391 3.77266 13.6453 3.80618 13.5406C3.83971 13.4358 3.84425 13.324 3.81933 13.2169C3.70888 12.5505 3.66222 11.8737 3.5613 11.2065C3.48989 10.7353 3.66699 10.445 4.08211 10.2327C4.67431 9.93378 5.24651 9.5949 5.83681 9.29124C5.93266 9.2494 6.01617 9.18368 6.07935 9.10035C6.14252 9.01702 6.18327 8.91886 6.19766 8.81529C6.31382 8.13849 6.44521 7.46456 6.56898 6.78871C6.65753 6.31276 6.85461 6.12238 7.33066 6.0329C8.00569 5.91011 8.68072 5.77969 9.35766 5.66261C9.45573 5.64979 9.54879 5.61173 9.62773 5.55216C9.70667 5.4926 9.76878 5.41356 9.808 5.32279C10.1346 4.69073 10.4878 4.07295 10.8229 3.44565C11.001 3.11249 11.2657 2.9697 11.6417 3.0192C12.3701 3.11439 13.0984 3.20957 13.8316 3.28477C13.9878 3.29543 14.1423 3.24721 14.2648 3.14961C14.7703 2.70032 15.254 2.22627 15.7472 1.76269C16.2147 1.32292 16.3813 1.29436 16.9487 1.55994C17.5504 1.84551 18.156 2.11109 18.7472 2.41094C18.8328 2.45911 18.9297 2.48362 19.028 2.48195C19.1262 2.48028 19.2222 2.45248 19.3061 2.40142C19.9212 2.09491 20.5438 1.80363 21.1636 1.50854C21.6035 1.29913 21.8425 1.33339 22.1957 1.65894C22.7365 2.15868 23.2706 2.66605 23.8143 3.15913C23.9156 3.25211 24.0434 3.31103 24.1799 3.32762C24.7721 3.36379 25.3662 3.38949 25.9594 3.38568C26.1292 3.37712 26.2907 3.30982 26.4164 3.1953C27.2494 2.38333 28.0673 1.55518 28.8918 0.732745C29.4516 0.173982 29.7487 0.171126 30.2971 0.72037C31.5031 1.92611 32.7119 3.13565 33.9236 4.349C35.0661 5.49953 36.2068 6.65354 37.3455 7.81105V8.31079C37.1741 8.50117 37.0132 8.70773 36.8304 8.8905C35.884 9.84239 34.9319 10.7838 33.9589 11.7519C34.4568 12.1374 34.9243 12.4972 35.387 12.8609C35.7935 13.1778 35.8631 13.3844 35.724 13.8784C35.5336 14.54 35.3556 15.2016 35.1528 15.8584C35.1154 15.9558 35.104 16.0612 35.1197 16.1643C35.1354 16.2675 35.1776 16.3648 35.2423 16.4467C35.6384 16.995 36.0116 17.5594 36.3915 18.1191C36.7142 18.5951 36.7161 18.7798 36.401 19.2509C36.0201 19.8221 35.6231 20.3865 35.2585 20.9701C35.1694 21.1264 35.1403 21.3098 35.1766 21.486C35.3518 22.1733 35.5574 22.8548 35.7678 23.5326C35.8945 23.939 35.7916 24.2446 35.4565 24.4997C34.8995 24.9242 34.3559 25.365 33.798 25.7886C33.7147 25.8426 33.6467 25.9171 33.6005 26.0049C33.5543 26.0928 33.5315 26.191 33.5342 26.2902C33.5285 26.9661 33.4971 27.6429 33.4733 28.3187C33.4533 28.8946 33.3286 29.0698 32.7935 29.2659C32.1365 29.5048 31.4748 29.7304 30.8255 29.9855C30.6823 30.0491 30.5679 30.1638 30.5047 30.3072C30.2495 30.9574 30.0229 31.618 29.7849 32.2748C29.5945 32.8069 29.4145 32.9345 28.8328 32.9545C28.1558 32.9773 27.4798 33.0087 26.8039 33.0144C26.7047 33.0117 26.6065 33.0347 26.5187 33.0811C26.431 33.1274 26.3567 33.1956 26.3031 33.279C25.8803 33.8369 25.4386 34.3814 25.0139 34.9382C24.7588 35.2723 24.4522 35.3742 24.0466 35.2476C23.3687 35.0353 22.688 34.8297 22.0005 34.6536C21.8237 34.6185 21.6402 34.6493 21.4845 34.7402C20.9009 35.1038 20.3363 35.5017 19.765 35.8825C19.308 36.189 19.1109 36.1919 18.6634 35.8882C18.1036 35.5074 17.54 35.1362 16.9906 34.7459C16.9063 34.6751 16.8046 34.6279 16.6961 34.6092C16.5875 34.5904 16.4759 34.6008 16.3727 34.6393C15.7062 34.8487 15.0312 35.0248 14.36 35.2181C13.962 35.3323 13.6469 35.2438 13.3926 34.8973C13.0385 34.4118 12.6605 33.9454 12.272 33.4409C11.4951 34.2195 10.7487 34.9791 9.98699 35.7254C9.62805 36.0938 9.23294 36.4508 8.84638 36.8144ZM29.6192 2.15392L2.68633 29.0869L8.71119 35.1114C8.77077 34.9894 8.8439 34.8745 8.92922 34.7688C12.4869 31.2036 16.0474 27.6416 19.6108 24.0828C19.7075 23.9778 19.8115 23.8798 19.9221 23.7896C20.0541 23.6851 20.2197 23.6324 20.3878 23.6414C20.5559 23.6503 20.715 23.7203 20.8352 23.8381C20.9606 23.9581 21.0385 24.1191 21.0548 24.2919C21.071 24.4646 21.0245 24.6374 20.9237 24.7786C20.8438 24.8809 20.7556 24.9764 20.66 25.0642C19.2414 26.4844 17.8224 27.904 16.4032 29.323C16.3165 29.4096 16.2337 29.501 16.1356 29.6085C19.627 30.687 24.296 29.9198 27.5236 26.4892C30.7513 23.0585 31.1035 18.4818 30.0753 15.5671C29.98 15.649 29.9363 15.7841 29.8468 15.8736C28.43 17.2958 27.0098 18.7144 25.5861 20.1295C25.4982 20.2253 25.4026 20.3138 25.3005 20.3942C25.1592 20.4958 24.9854 20.5417 24.8123 20.5231C24.6392 20.5045 24.4791 20.4227 24.3627 20.2933C24.247 20.1716 24.1792 20.0123 24.1715 19.8447C24.1638 19.677 24.2168 19.5121 24.3208 19.3804C24.3958 19.2881 24.4772 19.2013 24.5645 19.1205C28.1431 15.5433 31.7233 11.9677 35.3051 8.39361C35.4078 8.30748 35.5192 8.2322 35.6374 8.16896L29.6192 2.15392ZM21.9605 7.70825C19.0871 6.85154 14.5342 7.33986 11.2228 10.6306C7.91144 13.9213 7.37731 18.4885 8.24752 21.4308C12.829 16.8464 17.3819 12.2897 21.9605 7.70825ZM3.5137 16.0316C3.82884 16.7046 4.1259 17.3643 4.44485 18.0106C4.5252 18.1564 4.56734 18.3201 4.56734 18.4866C4.56734 18.653 4.5252 18.8167 4.44485 18.9625C4.15922 19.5232 3.91168 20.1048 3.627 20.6598C3.52132 20.8673 3.51751 21.0005 3.6965 21.1776C4.10305 21.5764 4.4658 22.02 4.87425 22.4151C5.19891 22.7282 5.35029 23.0747 5.30269 23.525C5.28735 23.7992 5.28576 24.074 5.29792 24.3484C5.85395 23.7867 6.33095 23.2927 6.82128 22.8148C6.97932 22.6616 7.00599 22.5293 6.94315 22.3151C6.34792 20.2801 6.26421 18.1296 6.69942 16.0545C8.14184 8.98474 15.4244 4.44134 22.3985 6.30325C22.9755 6.45841 23.3363 6.38986 23.7048 5.94057C24.0199 5.55315 24.4055 5.22379 24.8359 4.79829C24.5055 4.79829 24.2922 4.78877 24.0799 4.79829C23.6105 4.82304 23.243 4.65075 22.9126 4.30997C22.4594 3.84259 21.9653 3.41518 21.4845 2.96208C20.8018 3.28953 20.1287 3.60938 19.4584 3.93493C19.3264 4.00454 19.1793 4.04091 19.03 4.04091C18.8807 4.04091 18.7336 4.00454 18.6016 3.93493C18.0046 3.64936 17.3972 3.37806 16.8021 3.08488C16.6241 2.9973 16.5165 3.01729 16.3737 3.15627C15.8976 3.6227 15.4092 4.07104 14.9303 4.53176C14.822 4.64173 14.6879 4.72281 14.5402 4.76755C14.3925 4.81228 14.2359 4.81925 14.0848 4.78782C13.465 4.69263 12.8395 4.62409 12.2178 4.53462C11.9921 4.5032 11.8522 4.55176 11.7417 4.77926C11.4799 5.31042 11.1609 5.81302 10.9058 6.34703C10.7039 6.77063 10.385 6.95529 9.94129 7.02573C9.26626 7.13235 8.59694 7.27418 7.93238 7.39888C7.7867 8.15278 7.63627 8.87146 7.5125 9.59395C7.48894 9.7519 7.42602 9.90138 7.32952 10.0286C7.23302 10.1559 7.10604 10.2568 6.96029 10.3222C6.40236 10.6077 5.86252 10.9333 5.30174 11.2169C5.09418 11.3226 5.0361 11.4473 5.06562 11.6624C5.14845 12.2612 5.19225 12.8666 5.30459 13.4596C5.34815 13.6438 5.34144 13.8362 5.28516 14.0169C5.22889 14.1976 5.12512 14.3598 4.98469 14.4867C4.48579 14.9845 4.00498 15.5119 3.5137 16.0316ZM13.3203 32.4043C13.6059 32.7774 13.8801 33.1087 14.1248 33.458C14.2695 33.6636 14.4104 33.7207 14.657 33.6398C15.2778 33.4399 15.9119 33.2876 16.5355 33.0972C16.6701 33.0513 16.8139 33.0391 16.9544 33.0616C17.0948 33.0842 17.2276 33.1409 17.341 33.2267C17.878 33.5989 18.4283 33.9511 18.9538 34.3366C19.1671 34.4927 19.3118 34.4746 19.5146 34.3299C20.0173 33.972 20.5429 33.6465 21.0456 33.2895C21.18 33.1827 21.3396 33.112 21.5091 33.0842C21.6785 33.0564 21.8523 33.0723 22.0139 33.1305C22.6089 33.3209 23.2173 33.4828 23.8152 33.6731C24.0342 33.7426 24.1685 33.7302 24.3179 33.5227C24.6921 33.003 25.1101 32.5147 25.4928 31.9997C25.5787 31.8715 25.6949 31.7666 25.8311 31.6942C25.9673 31.6218 26.1193 31.5842 26.2735 31.5847C26.8915 31.5732 27.5113 31.5371 28.1254 31.538C28.4281 31.538 28.59 31.4552 28.6833 31.142C28.8528 30.5757 29.0946 30.0321 29.2774 29.4686C29.3229 29.297 29.4125 29.1402 29.5372 29.0138C29.662 28.8874 29.8176 28.7958 29.9886 28.748C30.5856 28.5576 31.1692 28.3216 31.7633 28.1198C31.9709 28.0484 32.0642 27.9418 32.0661 27.7143C32.0737 27.0479 32.1061 26.3816 32.1213 25.7153C32.1221 25.5671 32.159 25.4213 32.2288 25.2906C32.2987 25.1599 32.3994 25.0482 32.5222 24.9652C33.1172 24.5149 33.6989 24.0476 34.2883 23.5868C34.0883 22.8958 33.917 22.218 33.6923 21.5574C33.6195 21.3766 33.596 21.1797 33.6243 20.9869C33.6525 20.794 33.7315 20.6122 33.8532 20.4599C34.2102 19.9725 34.5196 19.4508 34.8748 18.9597C35.0147 18.7645 35.0243 18.6284 34.8748 18.4295C34.4939 17.9011 34.1417 17.35 33.7665 16.816C33.6765 16.6984 33.617 16.5604 33.5934 16.4142C33.5699 16.268 33.5829 16.1182 33.6313 15.9783C33.8218 15.3444 33.9865 14.6999 34.1816 14.0669C34.2454 13.8585 34.2007 13.7442 34.0293 13.6205C33.6637 13.3596 33.3143 13.076 32.9335 12.7819C32.465 13.2521 32.0137 13.7233 31.5415 14.1707C31.3577 14.3449 31.3349 14.4943 31.413 14.7304C32.044 16.6187 32.2125 18.6309 31.9042 20.5979C31.4396 23.5592 30.1172 26.0808 27.9054 28.1179C25.7946 30.0645 23.2925 31.1639 20.442 31.4562C18.6749 31.6294 16.8912 31.431 15.2054 30.8736C15.1377 30.8533 15.0663 30.8479 14.9962 30.858C14.9262 30.868 14.8592 30.8931 14.7998 30.9317C14.3114 31.4 13.8316 31.8931 13.3222 32.4043H13.3203Z" fill="white"/>
<path d="M19.3284 19.5163C19.1932 19.6314 19.1008 19.7209 18.998 19.7971C18.8602 19.9021 18.6893 19.9542 18.5163 19.9439C18.3433 19.9336 18.1798 19.8615 18.0554 19.7409C17.9234 19.6172 17.8456 19.4465 17.8388 19.2657C17.832 19.085 17.8969 18.9089 18.0193 18.7757C18.3125 18.4501 18.6257 18.1398 18.9495 17.8438C19.2551 17.563 19.6274 17.5849 19.9406 17.8704C20.7451 18.6024 21.0564 19.7961 20.6861 20.7261C20.2853 21.7323 19.258 22.3929 18.1259 22.3662C16.713 22.3339 15.6238 21.3277 15.4296 19.877C15.2649 18.6453 16.1151 17.3745 17.368 16.9842C17.4805 16.9472 17.5962 16.9208 17.7136 16.9052C17.8821 16.8877 18.0513 16.9306 18.1911 17.0262C18.3309 17.1217 18.4323 17.2638 18.4771 17.4271C18.5219 17.5904 18.5073 17.7643 18.4358 17.9179C18.3643 18.0714 18.2407 18.1946 18.0869 18.2655C17.9802 18.3131 17.8603 18.3311 17.7489 18.3711C17.4956 18.4613 17.2759 18.6264 17.1188 18.8445C16.9617 19.0627 16.8749 19.3234 16.8697 19.5921C16.8645 19.8609 16.9413 20.1248 17.0899 20.3488C17.2384 20.5728 17.4517 20.7462 17.7013 20.8461C17.9518 20.9429 18.2259 20.9611 18.487 20.8982C18.7481 20.8352 18.9839 20.6942 19.1627 20.4938C19.4017 20.2197 19.4674 19.917 19.3284 19.5163Z" fill="white"/>
<path d="M11.3585 29.2C11.3532 29.7435 11.187 30.2733 10.8809 30.7224C10.5748 31.1716 10.1424 31.52 9.63843 31.7238C9.13443 31.9275 8.58136 31.9774 8.04903 31.8672C7.51669 31.7569 7.02895 31.4915 6.64734 31.1044C6.26573 30.7173 6.00735 30.2259 5.90484 29.6921C5.80232 29.1584 5.86025 28.6062 6.07131 28.1053C6.28237 27.6044 6.63711 27.1773 7.09075 26.8778C7.54439 26.5782 8.0766 26.4198 8.62023 26.4224C9.35152 26.4284 10.0506 26.7243 10.5639 27.245C11.0773 27.7658 11.363 28.4689 11.3585 29.2ZM8.60309 30.5003C8.77791 30.5044 8.95178 30.4735 9.11444 30.4093C9.2771 30.3451 9.42524 30.249 9.55013 30.1266C9.67503 30.0043 9.77414 29.8581 9.84161 29.6968C9.90908 29.5355 9.94354 29.3624 9.94297 29.1875C9.94239 29.0127 9.9068 28.8398 9.83827 28.6789C9.76975 28.5181 9.66969 28.3726 9.544 28.251C9.41831 28.1295 9.26953 28.0344 9.10645 27.9712C8.94338 27.9081 8.76931 27.8783 8.59452 27.8836C8.4197 27.8795 8.24583 27.9104 8.08317 27.9746C7.92052 28.0388 7.77237 28.1349 7.64748 28.2573C7.52258 28.3796 7.42347 28.5258 7.356 28.6871C7.28853 28.8483 7.25407 29.0215 7.25465 29.1964C7.25522 29.3712 7.29081 29.5441 7.35934 29.705C7.42786 29.8658 7.52792 30.0113 7.65361 30.1329C7.77931 30.2544 7.92808 30.3495 8.09116 30.4126C8.25423 30.4758 8.42831 30.5056 8.60309 30.5003Z" fill="white"/>
<path d="M24.1653 13.2338C23.7645 12.8264 23.4103 12.4637 23.0523 12.1039C22.6715 11.7232 22.6191 11.2967 22.9209 10.9797C23.238 10.6475 23.6483 10.6742 24.0444 11.0616C24.9365 11.9316 25.8305 12.7988 26.7103 13.6784C27.2092 14.1772 27.0492 14.8939 26.4142 15.0434C26.2629 15.0674 26.1083 15.0619 25.9591 15.0272C25.2155 14.8996 24.4729 14.7626 23.7293 14.6293L23.6655 14.7178C24.0463 15.0834 24.4272 15.4432 24.808 15.8173C24.9311 15.9305 25.0117 16.0825 25.0363 16.2479C25.0609 16.4133 25.0281 16.5822 24.9432 16.7263C24.892 16.8177 24.8205 16.8961 24.7344 16.9557C24.6482 17.0153 24.5496 17.0544 24.446 17.0701C24.3424 17.0858 24.2366 17.0777 24.1367 17.0463C24.0367 17.0149 23.9453 16.9612 23.8692 16.8891C22.8733 15.922 21.8955 14.9368 20.9177 13.9487C20.6864 13.7136 20.6683 13.4099 20.8292 13.1253C20.9901 12.8407 21.2662 12.7103 21.6118 12.7741C22.4382 12.9264 23.2646 13.072 24.1653 13.2338Z" fill="white"/>
<path d="M13.251 26.6136C13.4414 26.8154 13.5718 26.9372 13.6842 27.0733C13.7996 27.2106 13.8602 27.3858 13.8542 27.565C13.8483 27.7443 13.7761 27.915 13.6518 28.0443C13.591 28.1102 13.5178 28.1635 13.4364 28.2011C13.355 28.2387 13.2669 28.2598 13.1773 28.2633C13.0876 28.2667 12.9982 28.2524 12.9141 28.2212C12.8301 28.19 12.753 28.1425 12.6873 28.0814C12.276 27.7006 11.8904 27.3018 11.4953 26.9077C10.9402 26.3556 10.3842 25.8035 9.83484 25.2457C9.43686 24.8421 9.43686 24.4699 9.82532 24.0672C10.0399 23.8458 10.2579 23.6278 10.4794 23.4133C11.1116 22.8012 11.9599 22.6518 12.6692 23.0325C13.3785 23.4133 13.6775 24.1082 13.5347 24.9991C13.5271 25.0458 13.5166 25.0943 13.5004 25.1686C13.907 25.2 14.304 25.2286 14.7 25.2638C15.1666 25.3047 15.4313 25.5903 15.4103 26.0253C15.3903 26.4299 15.0933 26.7002 14.6486 26.6916C14.204 26.6831 13.7746 26.6431 13.251 26.6136ZM11.8342 25.1667C11.9404 24.9478 12.0332 24.7228 12.1123 24.4927C12.1256 24.4451 11.9599 24.2786 11.9152 24.2919C11.6823 24.3759 11.4546 24.4738 11.2335 24.5851L11.8342 25.1667Z" fill="white"/>
<path d="M27.5636 9.98787C27.9273 10.7951 28.2558 11.5052 28.5642 12.2239C28.6519 12.4029 28.6947 12.6005 28.689 12.7998C28.6547 13.1415 28.4205 13.3547 28.0806 13.4042C27.9324 13.4315 27.7793 13.4078 27.6463 13.3369C27.5134 13.266 27.4084 13.1522 27.3484 13.014C27.1942 12.7074 27.0628 12.3895 26.9228 12.0754C26.4906 11.114 26.0586 10.1519 25.627 9.18923C25.4366 8.76658 25.4756 8.42771 25.7346 8.16689C25.9936 7.90607 26.3363 7.85086 26.7534 8.03838C28.0063 8.60127 29.2583 9.16733 30.5094 9.73657C30.835 9.88411 31.0168 10.1373 30.9749 10.4981C30.9359 10.8398 30.7255 11.0778 30.3837 11.1168C30.1863 11.1245 29.9901 11.0833 29.8124 10.9969C29.0822 10.6837 28.3662 10.3505 27.5636 9.98787Z" fill="white"/>
<path d="M31.9353 7.81083C32.0722 7.62698 32.2197 7.45122 32.377 7.28443C32.4432 7.216 32.5223 7.16143 32.6098 7.1239C32.6972 7.08637 32.7913 7.06662 32.8865 7.06582C32.9817 7.06503 33.0761 7.08319 33.1642 7.11925C33.2523 7.15531 33.3323 7.20855 33.3996 7.27586C33.6795 7.55477 33.6852 7.98407 33.3929 8.2982C33.0768 8.63612 32.7483 8.96452 32.4123 9.2796C32.0762 9.59468 31.6953 9.60801 31.3649 9.28532C30.4014 8.33723 29.4455 7.3812 28.4972 6.41725C28.4283 6.35132 28.3735 6.27212 28.3361 6.18444C28.2986 6.09675 28.2793 6.00238 28.2793 5.90703C28.2793 5.81169 28.2986 5.71732 28.3361 5.62963C28.3735 5.54195 28.4283 5.46275 28.4972 5.39682C28.7924 5.11125 29.1961 5.11125 29.515 5.41871C30.2024 6.08504 30.8765 6.77516 31.5563 7.45387C31.663 7.55286 31.7658 7.64805 31.9353 7.81083Z" fill="white"/>
<path d="M17.2967 24.2471C17.1062 24.4708 16.9806 24.7021 16.7863 24.8325C16.5293 25.0058 16.2332 24.9449 15.999 24.7374C15.7647 24.5298 15.5581 24.3071 15.3401 24.0891C14.6022 23.3514 13.8625 22.6156 13.1293 21.8731C12.8332 21.5733 12.7971 21.2068 13.0084 20.9069C13.105 20.7702 13.2467 20.6717 13.4086 20.6289C13.5705 20.5861 13.7423 20.6016 13.8939 20.6728C14.0079 20.7356 14.1116 20.8155 14.2014 20.9098C15.1002 21.8046 16.0018 22.6974 16.8892 23.6046C17.0434 23.7617 17.1329 23.9844 17.2967 24.2471Z" fill="white"/>
<path d="M19.5493 14.4941C19.7978 14.636 19.9967 14.7026 20.1319 14.8349C21.0802 15.7652 22.0209 16.7035 22.954 17.6497C23.2758 17.9752 23.2815 18.4112 22.9968 18.6968C22.7121 18.9823 22.2827 18.9985 21.9495 18.672C20.9974 17.7296 20.052 16.7787 19.1056 15.8296C18.8704 15.5945 18.7914 15.2928 18.9609 15.0205C19.0961 14.814 19.3379 14.6769 19.5493 14.4941Z" fill="white"/>
<path d="M22.6799 21.4171C22.7745 21.4172 22.8681 21.4363 22.955 21.4735C23.042 21.5107 23.1205 21.565 23.1859 21.6333C23.2513 21.7016 23.3022 21.7825 23.3355 21.8709C23.3688 21.9594 23.3838 22.0537 23.3797 22.1482C23.3708 22.3324 23.2921 22.5063 23.1597 22.6346C23.0273 22.7629 22.851 22.8361 22.6666 22.8393C22.5721 22.8401 22.4784 22.8218 22.3911 22.7856C22.3038 22.7494 22.2247 22.696 22.1585 22.6286C22.0923 22.5612 22.0404 22.4811 22.0058 22.3932C21.9712 22.3052 21.9547 22.2112 21.9573 22.1168C21.9549 22.0223 21.9721 21.9283 22.0079 21.8408C22.0437 21.7534 22.0972 21.6743 22.1651 21.6085C22.233 21.5427 22.3138 21.4918 22.4025 21.4589C22.4911 21.4259 22.5855 21.4117 22.6799 21.4171Z" fill="white"/>
</g>
<defs>
<clipPath id="clip0_444_1211">
<rect width="36.5072" height="36.5072" fill="white" transform="translate(0.847656 0.307129)"/>
</clipPath>
</defs>
</svg>
