<svg width="213" height="212" viewBox="0 0 213 212" fill="none" xmlns="http://www.w3.org/2000/svg">
<path d="M178.991 103.606V55.6336C178.991 55.6274 178.986 55.6229 178.986 55.6167C178.984 55.2841 178.92 54.947 178.776 54.6239C178.728 54.5145 178.638 54.4422 178.577 54.3443C178.518 54.2502 178.464 54.1733 178.394 54.0882C178.102 53.7346 177.752 53.453 177.333 53.3038C177.321 53.2993 177.315 53.2853 177.303 53.2812L143.326 41.7954C143.323 41.7942 143.319 41.7933 143.316 41.7921L96.8146 26.0714C96.2991 25.8955 95.7383 25.8955 95.2228 26.0714L14.7344 53.3264C14.5995 53.3724 14.5013 53.4666 14.38 53.532C14.3101 53.5685 14.2283 53.5648 14.1613 53.6084C14.1193 53.636 14.1021 53.6865 14.0622 53.7165C13.8192 53.8987 13.6239 54.117 13.4648 54.3686C13.4266 54.429 13.3703 54.4726 13.3374 54.5359C13.1672 54.8619 13.0788 55.2208 13.0661 55.5954C13.0652 55.6196 13.0484 55.6402 13.0484 55.6648L12.4786 143.814C12.4724 144.776 13.0212 145.655 13.8883 146.07L96.9445 185.838C97.2841 186.002 97.6508 186.081 98.018 186.081L98.0196 186.08L98.0212 186.081C98.3941 186.081 98.7761 185.996 99.1341 185.817L144.568 162.99C150.447 167.577 157.818 170.338 165.836 170.338C184.953 170.338 200.507 154.784 200.507 135.667C200.507 121.207 191.601 108.799 178.991 103.606ZM165.836 100.996C149.977 100.996 136.602 111.712 132.493 126.274L111.435 135.724C110.183 136.285 109.622 137.756 110.186 139.005C110.598 139.927 111.505 140.473 112.451 140.473C112.793 140.473 113.139 140.403 113.466 140.255L131.339 132.234C131.227 133.364 131.165 134.508 131.165 135.667C131.165 138.068 131.411 140.412 131.878 142.676L115.119 150.681C113.882 151.272 113.358 152.755 113.949 153.992C114.373 154.884 115.265 155.405 116.193 155.405C116.55 155.405 116.914 155.33 117.26 155.163L133.291 147.505C134.921 151.973 137.434 156.009 140.635 159.405L100.526 179.557L101.062 91.9746L174.025 59.4578V102.014C171.394 101.373 168.661 100.996 165.836 100.996ZM48.1142 71.9751L64.4236 78.7848V104.249L56.3797 96.2992C55.661 95.5896 54.5847 95.3865 53.6568 95.7836L48.1142 98.155V71.9751ZM52.0638 68.2409L120.74 39.4035L135.515 44.3982L66.6711 74.3402L52.0638 68.2409ZM142.522 46.767L169.694 55.9526L98.559 87.655L73.0249 76.9931L142.522 46.767ZM96.0199 31.0472L113.634 37.0018L45.6298 65.5546L22.5608 55.9218L96.0199 31.0472ZM17.9908 59.3965L43.1475 69.901V101.921C43.1475 102.755 43.566 103.534 44.2632 103.995C44.9576 104.453 45.8427 104.531 46.607 104.204L54.0749 101.009L65.1599 111.966C65.6359 112.433 66.2666 112.682 66.9063 112.682C67.2307 112.682 67.555 112.622 67.8646 112.491C68.7892 112.106 69.3899 111.199 69.3899 110.199V80.8593L96.0931 92.0096L95.5595 179.665L17.4572 142.271L17.9908 59.3965ZM165.836 165.372C149.457 165.372 136.131 152.046 136.131 135.667C136.131 119.288 149.457 105.962 165.836 105.962C182.215 105.962 195.541 119.288 195.541 135.667C195.541 152.046 182.215 165.372 165.836 165.372Z" fill="#0E1422"/>
<rect x="178.824" y="121.18" width="5.01294" height="36.045" rx="2.50647" transform="rotate(47.7511 178.824 121.18)" fill="#E17862"/>
<rect x="153.016" y="124.908" width="5.01294" height="36.045" rx="2.50647" transform="rotate(-43.5195 153.016 124.908)" fill="#E17862"/>
</svg>
