<svg width="33" height="33" viewBox="0 0 33 33" fill="none" xmlns="http://www.w3.org/2000/svg">
<path d="M8.54804 17.254C8.13103 17.254 7.79297 16.916 7.79297 16.499C7.79297 16.082 8.13103 15.7439 8.54804 15.7439" stroke="#5C5F6A" stroke-width="2.37847" stroke-linecap="round" stroke-linejoin="round"/>
<path d="M8.54804 17.254C8.96505 17.254 9.30311 16.916 9.30311 16.499C9.30311 16.082 8.96505 15.7439 8.54804 15.7439" stroke="#5C5F6A" stroke-width="2.37847" stroke-linecap="round" stroke-linejoin="round"/>
<path d="M16.2875 17.254C15.8705 17.254 15.5324 16.916 15.5324 16.499C15.5324 16.082 15.8705 15.7439 16.2875 15.7439" stroke="#5C5F6A" stroke-width="2.37847" stroke-linecap="round" stroke-linejoin="round"/>
<path d="M16.2875 17.254C16.7045 17.254 17.0426 16.916 17.0426 16.499C17.0426 16.082 16.7045 15.7439 16.2875 15.7439" stroke="#5C5F6A" stroke-width="2.37847" stroke-linecap="round" stroke-linejoin="round"/>
<path d="M24.0269 17.254C23.6099 17.254 23.2718 16.916 23.2718 16.499C23.2718 16.082 23.6099 15.7439 24.0269 15.7439" stroke="#5C5F6A" stroke-width="2.37847" stroke-linecap="round" stroke-linejoin="round"/>
<path d="M24.0269 17.254C24.444 17.254 24.782 16.916 24.782 16.499C24.782 16.082 24.444 15.7439 24.0269 15.7439" stroke="#5C5F6A" stroke-width="2.37847" stroke-linecap="round" stroke-linejoin="round"/>
</svg>
