<svg width="33" height="33" viewBox="0 0 33 33" fill="none" xmlns="http://www.w3.org/2000/svg">
<path d="M10.8439 27.1164H7.67845C7.25867 27.1164 6.8561 26.9496 6.55928 26.6528C6.26246 26.3561 6.0957 25.9534 6.0957 25.5337V12.8718M6.0957 12.8718H26.6714M6.0957 12.8718L9.59356 7.33214C9.72892 7.09748 9.92224 6.90149 10.155 6.76293C10.3878 6.62437 10.6523 6.54787 10.9231 6.54077H21.844C22.1148 6.54787 22.3793 6.62437 22.6121 6.76293C22.8448 6.90149 23.0382 7.09748 23.1735 7.33214L26.6714 12.8718M26.6714 12.8718V25.5337C26.6714 25.9534 26.5045 26.3561 26.2078 26.6528C25.911 26.9496 25.5084 27.1164 25.0886 27.1164H21.9231M12.4266 21.5768L16.3835 17.62M16.3835 17.62L20.3403 21.5768M16.3835 17.62L16.3836 27.1164M16.3836 6.54077V12.8717" stroke="#5C5F6A" stroke-width="1.88767" stroke-linecap="round" stroke-linejoin="round"/>
</svg>
